Coordinates
version=1
nRows=13
nColumns=40
inDegrees=yes

Units are S.I. units (second, meters, Newtons, ...)
Angles are in degrees.

endheader
time	pelvis_tilt	pelvis_list	pelvis_rotation	pelvis_tx	pelvis_ty	pelvis_tz	hip_flexion_r	hip_adduction_r	hip_rotation_r	knee_angle_r	knee_angle_r_beta	ankle_angle_r	subtalar_angle_r	mtp_angle_r	hip_flexion_l	hip_adduction_l	hip_rotation_l	knee_angle_l	knee_angle_l_beta	ankle_angle_l	subtalar_angle_l	mtp_angle_l	lumbar_extension	lumbar_bending	lumbar_rotation	arm_flex_r	arm_add_r	arm_rot_r	elbow_flex_r	pro_sup_r	wrist_flex_r	wrist_dev_r	arm_flex_l	arm_add_l	arm_rot_l	elbow_flex_l	pro_sup_l	wrist_flex_l	wrist_dev_l
     43.14500000	     -5.86848512	     -5.87914996	      1.26896824	      0.84037188	      0.91700205	      0.46647500	      4.45109232	      0.20879420	    -12.55973827	     23.71636738	     23.71636738	     17.13956161	     -5.18397577	     -2.62517844	     29.44511473	     -6.77962592	     -0.17549626	     28.91811621	     28.91811621	      8.64804582	    -15.77372411	      4.46805456	     -9.09965416	      4.81113563	      3.10032118	     20.47481201	    -18.33848103	      1.92132163	     80.71221241	     44.47331538	      0.00000000	      0.00000000	     -2.48792502	     -9.99928537	     -9.17237241	     40.62476115	     46.11494100	      0.00000000	      0.00000000
     43.15828571	     -5.88973597	     -5.86273366	      1.03609482	      0.83982232	      0.91756909	      0.46369505	      5.90522684	     -0.18083183	    -11.73814988	     26.98117706	     26.98117706	     16.10714477	     -7.83862673	     -3.54326193	     29.01076103	     -6.74396688	     -0.57601278	     29.04234857	     29.04234857	      9.42124428	    -15.40188319	      4.59988596	     -8.98046922	      4.60970421	      3.03582332	     18.78923429	    -18.55688018	      2.63237819	     79.73568996	     44.50917952	      0.00000000	      0.00000000	     -2.17306932	    -10.00178136	    -10.04568320	     41.20259208	     46.22377859	      0.00000000	      0.00000000
     43.17157143	     -5.89047278	     -5.69224230	      0.80338023	      0.83905935	      0.91816149	      0.46085197	      7.62721927	     -0.92070699	    -11.49795660	     30.79476739	     30.79476739	     15.28729907	     -9.56577799	     -4.09779612	     28.44271532	     -6.56913951	     -1.14344688	     28.94590767	     28.94590767	      9.95033125	    -14.98925590	      4.28494387	     -8.93144298	      4.25224927	      2.90330921	     17.06126564	    -18.57337553	      3.01416373	     78.81186535	     44.52803798	      0.00000000	      0.00000000	     -1.81258318	    -10.19181019	    -10.31265651	     41.53173069	     46.26005063	      0.00000000	      0.00000000
     43.18485714	     -5.87019562	     -5.51639888	      0.61431087	      0.83812282	      0.91874855	      0.45817272	      9.50408402	     -1.61467660	    -11.23274112	     34.80436063	     34.80436063	     14.28071294	    -11.63945687	     -4.44197728	     27.86380917	     -6.40254120	     -1.75898600	     28.83817278	     28.83817278	     10.44699972	    -14.44734893	      3.87759179	     -8.93581060	      3.86235076	      2.71258157	     15.28824315	    -18.56829278	      3.37720268	     77.82734344	     44.54792467	      0.00000000	      0.00000000	     -1.40668563	    -10.41075163	    -10.56808737	     41.91335032	     46.29549380	      0.00000000	      0.00000000
     43.19814286	     -5.83017557	     -5.32052483	      0.46233396	      0.83702263	      0.91935952	      0.45553758	     11.47395148	     -2.32207058	    -11.05771020	     38.87481669	     38.87481669	     13.18095331	    -13.70164101	     -4.54118623	     27.24698788	     -6.21507295	     -2.40355371	     28.66584824	     28.66584824	     10.91387673	    -13.81170468	      3.43699548	     -8.97682416	      3.49625964	      2.43186337	     13.48249718	    -18.51225065	      3.72004312	     76.82181656	     44.56750791	      0.00000000	      0.00000000	     -1.00316701	    -10.67157248	    -10.79386776	     42.28303153	     46.32733646	      0.00000000	      0.00000000
     43.21142857	     -5.88305841	     -5.14626645	      0.27430912	      0.83573872	      0.91985939	      0.45315591	     13.64022060	     -2.95565349	    -10.86683599	     42.90340881	     42.90340881	     12.06954769	    -15.72566526	     -4.29158683	     26.69410911	     -6.10003409	     -3.18774789	     28.40249976	     28.40249976	     11.33599871	    -13.01628243	      2.92453833	     -8.91864955	      3.15058045	      2.19696121	     11.65820106	    -18.46067063	      4.03450688	     75.67499696	     44.59317530	      0.00000000	      0.00000000	     -0.64786288	    -10.94814429	    -11.02684622	     42.67501440	     46.35941889	      0.00000000	      0.00000000
     43.22471429	     -5.85195428	     -5.10505240	      0.10151374	      0.83444351	      0.92049787	      0.45110641	     15.79808134	     -3.37208682	    -10.71417048	     46.92877647	     46.92877647	     12.14272962	    -16.96266877	     -0.49917541	     26.06894208	     -6.26360485	     -4.28855638	     28.15101820	     28.15101820	     11.55194854	    -11.58616789	      1.31751888	     -8.93972765	      2.89554967	      1.78451524	     10.25977823	    -18.06765480	      4.15214519	     73.31276838	     44.69983547	      0.00000000	      0.00000000	     -0.51142179	    -11.20576665	    -11.62057522	     43.45568551	     46.43056076	      0.00000000	      0.00000000
     43.23800000	     -5.80832315	     -4.80990034	     -0.00620151	      0.83303789	      0.92114113	      0.44872004	     17.82873516	     -4.24167815	    -10.87582339	     50.46925011	     50.46925011	     11.40561862	    -17.93793796	     -0.04188815	     25.36748789	     -5.92473166	     -4.89147255	     27.76995265	     27.76995265	     11.90131568	    -11.04800582	      1.04658707	     -9.03763665	      2.44251196	      1.30672139	      8.41040462	    -17.96411172	      4.51863347	     72.38947067	     44.71489333	      0.00000000	      0.00000000	     -0.09696413	    -11.56293689	    -11.74788387	     43.63949411	     46.45022293	      0.00000000	      0.00000000
     43.25128571	     -5.76278307	     -4.67199312	     -0.14299192	      0.83162112	      0.92188652	      0.44675638	     19.99379864	     -4.75782731	    -10.80181434	     53.99319377	     53.99319377	     12.74640891	    -18.09120024	      6.46723661	     24.65056816	     -5.87667719	     -5.76922807	     27.35252059	     27.35252059	     12.10603660	     -9.97152535	     -0.01404339	     -9.08660711	      2.13960456	      0.91618521	      6.93506189	    -17.67230356	      4.68683674	     70.08192006	     44.82330612	      0.00000000	      0.00000000	      0.44274182	    -11.92627588	    -11.69821612	     43.49220763	     46.45123635	      0.00000000	      0.00000000
     43.26457143	     -5.66302361	     -4.49080870	     -0.26209820	      0.83024068	      0.92276523	      0.44477984	     21.82991422	     -5.38873022	    -10.93503158	     56.64088257	     56.64088257	     12.81333479	    -18.43829943	      8.63621066	     23.86003963	     -5.72766252	     -6.52823016	     26.91254493	     26.91254493	     12.42823311	     -9.04185227	     -0.51390447	     -9.22454169	      1.81405329	      0.58329485	      5.21040289	    -17.48649570	      4.82050007	     68.39229774	     44.89972300	      0.00000000	      0.00000000	      1.03437415	    -12.29641118	    -11.56002666	     43.28761451	     46.44351241	      0.00000000	      0.00000000
     43.27785714	     -5.57792601	     -4.28173650	     -0.39652620	      0.82891081	      0.92365977	      0.44287796	     23.50732866	     -6.03807061	    -11.09060493	     58.59542029	     58.59542029	     12.45675887	    -18.68656059	      8.83096935	     23.04576843	     -5.48710805	     -7.13026702	     26.40095691	     26.40095691	     12.75956368	     -8.41683305	     -0.70161999	     -9.35572166	      1.47535702	      0.20564997	      3.37355245	    -17.42990894	      5.09703587	     67.25255821	     44.92386140	      0.00000000	      0.00000000	      1.51716746	    -12.63950885	    -11.60893458	     43.37321251	     46.45477430	      0.00000000	      0.00000000
     43.29114286	     -5.47650137	     -4.12067291	     -0.55642603	      0.82759930	      0.92466960	      0.44119960	     25.05303658	     -6.54216751	    -11.17454951	     59.94353070	     59.94353070	     12.25984637	    -18.78833349	      9.24446741	     22.17643950	     -5.32459480	     -7.80224292	     25.82907190	     25.82907190	     13.06710752	     -7.59839540	     -0.96177814	     -9.50007147	      1.18343937	     -0.03026274	      1.61643836	    -17.37149870	      5.31808326	     65.64661279	     44.96655084	      0.00000000	      0.00000000	      2.12586657	    -12.93035646	    -11.57541496	     43.26361560	     46.45735796	      0.00000000	      0.00000000
     43.30442857	     -5.30691193	     -4.17857204	     -0.70957370	      0.82637822	      0.92587822	      0.43984041	     26.34047793	     -6.66750820	    -11.24149130	     60.58680683	     60.58680683	     12.38795397	    -18.80472748	     10.54272076	     21.29238912	     -5.47312054	     -8.59092734	     25.37127292	     25.37127292	     13.34814504	     -6.42676914	     -1.61327346	     -9.67134612	      1.12424574	     -0.19775477	      0.41210203	    -16.98305375	      5.13999935	     62.19360807	     45.09779557	      0.00000000	      0.00000000	      3.18978290	    -13.24431561	    -11.09793948	     41.91709530	     46.41048320	      0.00000000	      0.00000000
